<svg width="118" height="17" fill="none" xmlns="http://www.w3.org/2000/svg"><path d="M17.217 5.796L12.26 5.33a.857.857 0 01-.71-.522L9.774.529c-.284-.705-1.292-.705-1.576 0L6.436 4.808a.838.838 0 01-.71.522L.77 5.796c-.738.07-1.037.988-.483 1.482l3.736 3.262c.241.212.34.522.27.833L3.17 15.947c-.17.72.61 1.313 1.264.932l4.133-2.414a.864.864 0 01.866 0l4.133 2.414a.853.853 0 001.265-.932l-1.108-4.574a.841.841 0 01.27-.833l3.735-3.262c.54-.494.227-1.412-.511-1.482zm25 0L37.26 5.33a.857.857 0 01-.71-.522L34.774.529c-.284-.705-1.292-.705-1.576 0l-1.762 4.279a.838.838 0 01-.71.522l-4.957.466c-.738.07-1.037.988-.483 1.482l3.736 3.262c.241.212.34.522.27.833l-1.123 4.574c-.17.72.611 1.313 1.265.932l4.133-2.414a.864.864 0 01.866 0l4.133 2.414a.853.853 0 001.265-.932l-1.108-4.574a.841.841 0 01.27-.833l3.735-3.262c.54-.494.227-1.412-.511-1.482zm25 0L62.26 5.33a.857.857 0 01-.71-.522L59.774.529c-.284-.705-1.292-.705-1.576 0l-1.762 4.279a.838.838 0 01-.71.522l-4.957.466c-.738.07-1.037.988-.483 1.482l3.736 3.262c.241.212.34.522.27.833l-1.123 4.574c-.17.72.611 1.313 1.265.932l4.133-2.414a.864.864 0 01.866 0l4.133 2.414a.853.853 0 001.265-.932l-1.108-4.574a.841.841 0 01.27-.833l3.735-3.262c.54-.494.227-1.412-.511-1.482zm25 0L87.26 5.33a.857.857 0 01-.71-.522L84.774.529c-.284-.705-1.292-.705-1.576 0l-1.762 4.279a.838.838 0 01-.71.522l-4.957.466c-.739.07-1.037.988-.483 1.482l3.736 3.262c.241.212.34.522.27.833l-1.123 4.574c-.17.72.611 1.313 1.265.932l4.133-2.414a.864.864 0 01.866 0l4.133 2.414a.853.853 0 001.265-.932l-1.108-4.574a.841.841 0 01.27-.833l3.735-3.262c.54-.494.227-1.412-.511-1.482zm25 0l-4.957-.466a.855.855 0 01-.71-.522L109.774.529c-.284-.705-1.292-.705-1.576 0l-1.762 4.279a.837.837 0 01-.71.522l-4.957.466c-.738.07-1.037.988-.483 1.482l3.736 3.262a.842.842 0 01.27.833l-1.122 4.574c-.171.72.61 1.313 1.264.932l4.133-2.414a.863.863 0 01.866 0l4.134 2.414a.853.853 0 001.264-.932l-1.108-4.574a.84.84 0 01.27-.833l3.735-3.262c.54-.494.227-1.412-.511-1.482z" fill="#FC9B09"/></svg>