<svg width="26" height="16" fill="none" xmlns="http://www.w3.org/2000/svg"><path fill-rule="evenodd" clip-rule="evenodd" d="M25.06 1.533a.627.627 0 01.393.357.603.603 0 01-.034.525c-.12.229-.25.451-.37.674a.474.474 0 01-.22.392A37.592 37.592 0 0121 9.061a.03.03 0 00-.02.02c1.67 1.16 5.66 4.118 3.71 5.785-1.02.876-3.98.729-5.12.232a8.784 8.784 0 01-1.83-1.23c-.98-.775-1.25-.73-2.13.098-1.13 1.064-1.76 1.737-3.43 1.544a10.795 10.795 0 01-5.35-2.562A21.13 21.13 0 01.01 1.925a.462.462 0 01.094-.382.478.478 0 01.356-.18c.02 0 .02-.01.04-.014a17.27 17.27 0 014.79-.168.63.63 0 01.34.152.3.3 0 01.12.086C6.98 2.872 7.52 4.791 8.8 6.204c.62.686.82.573.88-.37a9.85 9.85 0 00.01-1.214c-.06-1.058-.44-1.985-.6-3.013a.516.516 0 01.07-.393.539.539 0 01.157-.307.559.559 0 01.313-.154 45.675 45.675 0 014.58-.06.474.474 0 01.52.176.33.33 0 01.23.243c.18.924.24 1.867.18 2.806l-.03 1.357c-.01.257-.01.516-.01.774-.1.477.09.658.56.547.79.086 1-.572 1.39-1.176.23-.36.45-.729.66-1.103.5-.883.86-1.807 1.32-2.705a.452.452 0 01.37-.262.381.381 0 01.15-.046 24.107 24.107 0 015.51.229z" fill="#5476A4"/></svg>