<svg width="27" height="26" fill="none" xmlns="http://www.w3.org/2000/svg"><path fill-rule="evenodd" clip-rule="evenodd" d="M24.689 25.307h-7.04v-8.62h4.4v-4.309h-4.4V9.792a.86.86 0 01.26-.609.893.893 0 01.62-.253h3.96V4.615h-4.4c-1.32.11-2.55.702-3.446 1.66a5.114 5.114 0 00-1.384 3.513v2.586h-3.52v4.309h3.52v8.62H2.709a1.78 1.78 0 01-1.243-.506 1.712 1.712 0 01-.517-1.219V2.034c.002-.457.187-.895.517-1.218.33-.323.777-.505 1.243-.506h21.98c.465.003.91.186 1.237.509.328.322.512.76.513 1.215v21.548c0 .456-.185.893-.513 1.216a1.778 1.778 0 01-1.237.51z" fill="#4A68AD"/></svg>