<svg width="26" height="26" fill="none" xmlns="http://www.w3.org/2000/svg"><path fill-rule="evenodd" clip-rule="evenodd" d="M23.379.31H2.989a2.584 2.584 0 00-1.8.735 2.485 2.485 0 00-.75 1.765v20c.002.662.272 1.297.75 1.765a2.585 2.585 0 001.8.735h20.39a2.58 2.58 0 001.802-.733 2.48 2.48 0 00.748-1.767V2.807a2.478 2.478 0 00-.748-1.765A2.579 2.579 0 0023.379.31zm-10.19 7.5a5.17 5.17 0 012.834.843 5.023 5.023 0 011.878 2.244 4.91 4.91 0 01.29 2.89 4.97 4.97 0 01-1.396 2.56 5.132 5.132 0 01-2.61 1.368 5.195 5.195 0 01-2.948-.284 5.079 5.079 0 01-2.288-1.842 4.932 4.932 0 01-.86-2.778 4.96 4.96 0 011.496-3.534 5.16 5.16 0 013.604-1.468v.001zm-9.56 15.002a.61.61 0 01-.464-.17.588.588 0 01-.176-.455V11.558h2.68a4.12 4.12 0 00-.13 1.25c0 1.989.806 3.895 2.24 5.301a7.723 7.723 0 005.405 2.196c2.028 0 3.972-.79 5.406-2.196a7.423 7.423 0 002.24-5.3 4.43 4.43 0 00-.121-1.25h2.67v10.623a.578.578 0 01-.173.451.598.598 0 01-.457.174H3.629v.004zm19.75-16.873a.578.578 0 01-.173.45.599.599 0 01-.457.175h-2.55a.613.613 0 01-.465-.17.586.586 0 01-.175-.455v-2.5a.577.577 0 01.176-.454.602.602 0 01.464-.17h2.55a.61.61 0 01.457.174.586.586 0 01.173.45v2.5z" fill="#37373F"/></svg>