<svg width="27" height="26" viewBox="0 0 27 26" fill="none" xmlns="http://www.w3.org/2000/svg">
<path fill-rule="evenodd" clip-rule="evenodd" d="M24.689 25.3071H17.6489V16.6875H22.0488V12.3781H17.6489V9.79157C17.6505 9.56329 17.744 9.34482 17.9087 9.18349C18.0734 9.02217 18.296 8.93099 18.5288 8.9297H22.4888V4.61546H18.0889C16.7682 4.72463 15.5381 5.31744 14.6431 6.27589C13.748 7.23433 13.2536 8.48812 13.2588 9.78765V12.3742H9.73877V16.6826H13.2588V25.3032H2.70898C2.24262 25.3024 1.79568 25.1205 1.46582 24.7972C1.13596 24.474 0.950276 24.0357 0.949219 23.5785V2.03379C0.95054 1.57668 1.13599 1.1387 1.46582 0.815663C1.79566 0.492624 2.24279 0.310835 2.70898 0.310059H24.689C25.1536 0.312904 25.5985 0.495664 25.9263 0.818535C26.2541 1.14141 26.4382 1.57822 26.439 2.03379V23.5824C26.4384 24.0381 26.2541 24.4752 25.9263 24.7983C25.5984 25.1214 25.1538 25.3043 24.689 25.3071Z" fill="#4A68AD"/>
</svg>
