<svg width="26" height="26" viewBox="0 0 26 26" fill="none" xmlns="http://www.w3.org/2000/svg">
<path fill-rule="evenodd" clip-rule="evenodd" d="M23.3789 0.310059H2.98877C2.3132 0.312384 1.66618 0.576553 1.18848 1.04495C0.710772 1.51334 0.441337 2.14794 0.438965 2.81034V22.8098C0.441337 23.4722 0.710772 24.1068 1.18848 24.5752C1.66618 25.0436 2.3132 25.3077 2.98877 25.3101H23.3789C24.055 25.3093 24.7031 25.0456 25.1812 24.5769C25.6592 24.1081 25.9284 23.4726 25.9292 22.8098V2.80741C25.9279 2.14496 25.6587 1.51006 25.1807 1.04191C24.7026 0.57376 24.0545 0.310576 23.3789 0.310059ZM13.189 7.80898C14.1976 7.80898 15.1838 8.10225 16.0225 8.65172C16.8612 9.20119 17.5149 9.98219 17.9009 10.8959C18.2869 11.8097 18.3877 12.8151 18.1909 13.7851C17.9941 14.7551 17.5087 15.6462 16.7954 16.3455C16.0822 17.0449 15.1734 17.5211 14.1841 17.7141C13.1948 17.907 12.1692 17.808 11.2373 17.4295C10.3054 17.051 9.50913 16.4101 8.94873 15.5877C8.38834 14.7654 8.08887 13.7986 8.08887 12.8096C8.09098 11.4839 8.62901 10.2131 9.58496 9.27556C10.5409 8.33807 11.8369 7.81032 13.189 7.80799V7.80898ZM3.62891 22.8107C3.5436 22.8165 3.45804 22.8043 3.37793 22.775C3.29782 22.7457 3.22515 22.6999 3.16455 22.6408C3.10395 22.5817 3.05664 22.5105 3.02637 22.4321C2.9961 22.3537 2.98329 22.2698 2.98877 22.1862V11.5584H5.66895C5.56152 11.9663 5.51781 12.3878 5.53906 12.8086C5.53906 14.7966 6.3446 16.7033 7.77832 18.1091C9.21204 19.5148 11.1565 20.3046 13.1841 20.3046C15.2117 20.3046 17.1561 19.5148 18.5898 18.1091C20.0236 16.7033 20.8291 14.7966 20.8291 12.8086C20.8487 12.3884 20.8082 11.9676 20.709 11.5584H23.3789V22.1822C23.3842 22.265 23.372 22.348 23.3423 22.4257C23.3126 22.5034 23.266 22.574 23.2065 22.633C23.147 22.692 23.076 22.738 22.9971 22.7679C22.9182 22.7979 22.8335 22.8111 22.749 22.8068H3.62891V22.8107ZM23.3789 5.93816C23.3842 6.02096 23.372 6.10393 23.3423 6.18161C23.3126 6.2593 23.266 6.32995 23.2065 6.38893C23.147 6.44792 23.076 6.4939 22.9971 6.52386C22.9182 6.55381 22.8335 6.56707 22.749 6.56276H20.1992C20.1139 6.56852 20.0279 6.55632 19.9478 6.52701C19.8676 6.4977 19.795 6.45195 19.7344 6.39281C19.6738 6.33367 19.6269 6.26251 19.5967 6.1841C19.5664 6.10569 19.5536 6.02183 19.5591 5.93816V3.43787C19.5538 3.35428 19.5668 3.27055 19.5972 3.19226C19.6275 3.11397 19.6743 3.04293 19.7349 2.98389C19.7955 2.92486 19.8682 2.87918 19.9482 2.84993C20.0283 2.82068 20.114 2.80853 20.1992 2.81428H22.749C22.8334 2.80998 22.9178 2.8232 22.9966 2.8531C23.0754 2.883 23.1471 2.92889 23.2065 2.98777C23.266 3.04664 23.3121 3.11718 23.3418 3.19474C23.3715 3.27231 23.3841 3.35515 23.3789 3.43787V5.93816Z" fill="#37373F"/>
</svg>
