<svg width="26" height="16" viewBox="0 0 26 16" fill="none" xmlns="http://www.w3.org/2000/svg">
<path fill-rule="evenodd" clip-rule="evenodd" d="M25.0593 1.533C25.1479 1.56015 25.229 1.60629 25.2971 1.6681C25.3652 1.72991 25.4189 1.80582 25.4534 1.89033C25.4878 1.97483 25.5027 2.06581 25.4968 2.15664C25.4909 2.24747 25.4642 2.33589 25.4192 2.41545C25.2992 2.64391 25.1691 2.86648 25.0491 3.08906C25.0476 3.16703 25.0268 3.24349 24.9885 3.31182C24.9502 3.38015 24.8957 3.43831 24.8293 3.48127C23.725 5.44931 22.4432 7.31644 20.9992 9.06035C20.9944 9.06184 20.9901 9.06453 20.9866 9.06813C20.9831 9.07173 20.9805 9.07614 20.9792 9.08095C22.6492 10.2409 26.6392 13.1991 24.6892 14.8659C23.6692 15.7415 20.7091 15.5945 19.5691 15.0983C18.9084 14.7657 18.2934 14.3522 17.739 13.8678C16.759 13.0932 16.4891 13.1383 15.6091 13.9658C14.4791 15.0297 13.8494 15.7033 12.1794 15.5101C10.1849 15.1691 8.32981 14.2808 6.82933 12.9481C3.4438 10.0573 1.05985 6.20472 0.00901499 1.9252C-0.00445804 1.85865 -0.00269686 1.79002 0.0134095 1.72403C0.0295159 1.65804 0.0600229 1.59624 0.102765 1.54288C0.145507 1.48951 0.199402 1.44585 0.260968 1.41487C0.322534 1.38388 0.390073 1.36631 0.45921 1.36337C0.47921 1.36337 0.479249 1.35357 0.499249 1.34866C2.07974 1.07042 3.69259 1.01396 5.28929 1.18099C5.41579 1.19641 5.53429 1.24945 5.62913 1.33297C5.67589 1.35139 5.71727 1.38107 5.74925 1.41925C6.97925 2.87236 7.51905 4.79122 8.79905 6.20413C9.41905 6.89049 9.61942 6.77675 9.67943 5.83448C9.70775 5.4301 9.71086 5.02441 9.68919 4.61964C9.62919 3.56167 9.24909 2.63509 9.08909 1.60654C9.05895 1.47186 9.08441 1.33096 9.15941 1.21433C9.17637 1.098 9.23091 0.990215 9.31566 0.907125C9.4004 0.824034 9.5105 0.77012 9.62913 0.753487C11.1537 0.656637 12.6825 0.63635 14.2092 0.692699C14.3038 0.66403 14.4052 0.665684 14.4988 0.697426C14.5923 0.729168 14.673 0.789351 14.7292 0.869198C14.7864 0.885516 14.8381 0.916753 14.8786 0.959579C14.9192 1.00241 14.9469 1.05521 14.9592 1.11236C15.1391 2.03632 15.1998 2.97881 15.1394 3.91759C15.1294 4.36862 15.1191 4.82358 15.1091 5.27462C15.0991 5.53249 15.0993 5.79134 15.0993 6.04921C14.9993 6.52574 15.1894 6.70714 15.6594 6.59635C16.4494 6.68165 16.6591 6.02372 17.0491 5.41973C17.2791 5.06086 17.4992 4.69121 17.7092 4.31665C18.2092 3.4342 18.569 2.50958 19.029 1.61242C19.0619 1.5407 19.1135 1.47868 19.1784 1.43257C19.2434 1.38645 19.3194 1.35785 19.3992 1.34964C19.4453 1.32411 19.4963 1.30841 19.5491 1.30356C21.3886 1.169 23.2381 1.24601 25.0593 1.533Z" fill="#5476A4"/>
</svg>
